# xmcd
#
# Track frame offsets:
#	150
#	16403
#	38023
#	60131
#	81528
#	101636
#	120681
#	139024
#	158173
#
# Disc length: 2328 seconds
#
# Revision: 0
# Processed by: cddbd v1.5.1PL0 Copyright (c) Steve Scherf et al.
# Submitted via: audiograbber 1.83.01
#
DISCID=6b091609
DTITLE=Русский размер. - (2000) - NEXT.
DYEAR=1900
DGENRE=
TTITLE0=Rmx на песню из к/ф. Большое космическое путешествие.
TTITLE1=Rmx на песню из к/ф. Вам и не снилось.
TTITLE2=Rmx на песню из к/ф. Еще раз про любовь.
TTITLE3=На улице.
TTITLE4=Rmx на песню из к/ф. 31 Июня.
TTITLE5=Rmx на песню из оперетты. Принцесса цирка.
TTITLE6=Мама Джан.
TTITLE7=Нам хана.
TTITLE8=Пригородный блюз. (feat. Чиж and Co)
EXTD=
EXTT0=
EXTT1=
EXTT2=
EXTT3=
EXTT4=
EXTT5=
EXTT6=
EXTT7=
EXTT8=
PLAYORDER=
